HIERARCHY
ROOT Hips
{
  OFFSET 263.056 91.6644 -274.608
  CHANNELS 6 Xposition Yposition Zposition Zrotation Xrotation Yrotation
  JOINT LeftUpLeg
  {
    OFFSET 8.64259 1.95398 -2.38835
    CHANNELS 3 Zrotation Xrotation Yrotation
    JOINT LeftLeg
    {
      OFFSET 43.7702 0 0
      CHANNELS 3 Zrotation Xrotation Yrotation
      JOINT LeftFoot
      {
        OFFSET 40.6238 0 0
        CHANNELS 3 Zrotation Xrotation Yrotation
        JOINT LeftToeBase
        {
          OFFSET 12.7242 0 0
          CHANNELS 3 Zrotation Xrotation Yrotation
          End Site
          {
            OFFSET 0 0 0
          }
        }
      }
    }
  }
  JOINT RightUpLeg
  {
    OFFSET -8.2249 1.95398 -2.59336
    CHANNELS 3 Zrotation Xrotation Yrotation
    JOINT RightLeg
    {
      OFFSET 43.5653 0 0
      CHANNELS 3 Zrotation Xrotation Yrotation
      JOINT RightFoot
      {
        OFFSET 40.6238 0 0
        CHANNELS 3 Zrotation Xrotation Yrotation
        JOINT RightToeBase
        {
          OFFSET 12.7242 0 0
          CHANNELS 3 Zrotation Xrotation Yrotation
          End Site
          {
            OFFSET 0 0 0
          }
        }
      }
    }
  }
  JOINT Spine
  {
    OFFSET 0.165834 0.87714 6.61349
    CHANNELS 3 Zrotation Xrotation Yrotation
    JOINT Spine1
    {
      OFFSET 7.38963 1.71661e-005 0
      CHANNELS 3 Zrotation Xrotation Yrotation
      JOINT Spine2
      {
        OFFSET 11.9445 1.14441e-005 0
        CHANNELS 3 Zrotation Xrotation Yrotation
        JOINT Spine3
        {
          OFFSET 14.7254 4.19617e-005 0
          CHANNELS 3 Zrotation Xrotation Yrotation
          JOINT Spine4
          {
            OFFSET 10.9679 0 0
            CHANNELS 3 Zrotation Xrotation Yrotation
            JOINT RightShoulder
            {
              OFFSET 2.46616 -1.6653 3.69651
              CHANNELS 3 Zrotation Xrotation Yrotation
              JOINT RightArm
              {
                OFFSET 13.0012 0 0
                CHANNELS 3 Zrotation Xrotation Yrotation
                JOINT RightForeArm
                {
                  OFFSET 28.7848 1.52588e-005 0
                  CHANNELS 3 Zrotation Xrotation Yrotation
                  JOINT RightHand
                  {
                    OFFSET 26.5688 1.52588e-005 0
                    CHANNELS 3 Zrotation Xrotation Yrotation
                    End Site
                    {
                      OFFSET 0 0 0
                    }
                  }
                }
              }
            }
            JOINT LeftShoulder
            {
              OFFSET 2.38034 -1.29275 -3.7523
              CHANNELS 3 Zrotation Xrotation Yrotation
              JOINT LeftArm
              {
                OFFSET 16.3182 6.10352e-005 0
                CHANNELS 3 Zrotation Xrotation Yrotation
                JOINT LeftForeArm
                {
                  OFFSET 27.0901 0 0
                  CHANNELS 3 Zrotation Xrotation Yrotation
                  JOINT LeftHand
                  {
                    OFFSET 24.5451 1.52588e-005 0
                    CHANNELS 3 Zrotation Xrotation Yrotation
                    End Site
                    {
                      OFFSET 0 0 0
                    }
                  }
                }
              }
            }
            JOINT Neck
            {
              OFFSET 5.0226 -0.0266342 0
              CHANNELS 3 Zrotation Xrotation Yrotation
              JOINT Head
              {
                OFFSET 6.69364 2.86102e-005 0
                CHANNELS 3 Zrotation Xrotation Yrotation
                End Site
                {
                  OFFSET 0 0 0
                }
              }
            }
          }
        }
      }
    }
  }
}
MOTION
Frames:	17
Frame Time:	0.0416667
-18.2857 97.0024 -139.393 -73.8521 -83.5227 -74.553 -173.389 5.64438 88.822 -13.0098 8.82419 -0.0917829 64.7171 8.45444 10.3752 33.5419 5.4754 -8.17257 178.853 7.71749 91.1945 -18.487 2.55076 -1.61335 69.9244 -3.13806 -1.62925 30.1105 -0.482994 10.9837 -0.378342 7.10897 -90.1323 12.6556 -0.814614 -0.168593 0.98488 -0.821252 -0.132581 -21.5519 -0.726289 -0.405644 -1.53926 -0.72629 -0.405641 78.3299 -54.2261 -116.628 23.1709 -11.804 8.1338 -6.37522 -14.0283 -38.6242 -6.18871 -0.456684 1.44743 -102.272 -43.8341 58.1257 -28.2935 10.3788 0.485008 2.99392 8.81024 -30.7954 11.1367 1.27006 7.07984 11.2078 3.0732 3.88692 1.27295 2.06611 -0.275414 
-18.2171 97.165 -139.417 -76.2852 -83.2008 -76.6763 -172.518 4.94572 89.5747 -12.1084 9.04795 -0.722384 65.0852 7.36812 8.54183 32.9737 4.88468 -6.60075 179.024 6.90238 91.4987 -17.0842 2.59534 -1.6384 69.4236 -3.30947 -1.74086 29.7342 -0.582251 11.7041 -0.272645 7.06394 -90.1152 12.7458 -0.596488 -0.159397 1.07494 -0.60292 -0.133001 -21.461 -0.521008 -0.331306 -1.4484 -0.521007 -0.33131 78.2695 -55.2884 -116.299 22.2808 -11.5381 7.59571 -4.28711 -14.8192 -36.2572 -7.35932 -0.574276 2.78964 -102.601 -43.4656 57.4585 -28.0506 10.866 0.139012 2.28245 9.87606 -28.1591 11.7628 1.25999 6.48865 10.8466 2.53151 3.31909 0.468345 1.69103 -0.131088 
-18.1752 97.2465 -139.509 -76.7024 -83.6574 -77.3152 -172.595 4.50206 89.4087 -11.303 9.5243 -0.763654 64.4661 6.41316 8.55832 32.9337 4.86717 -7.40718 178.862 6.71547 91.2813 -16.8552 3.20867 -1.58104 69.1157 -3.23622 -1.70794 29.9346 -0.588275 12.4156 -0.311562 7.03973 -90.0274 12.7947 -0.63176 0.0205384 1.12388 -0.630251 0.0483095 -21.4124 -0.608733 -0.170297 -1.39979 -0.608729 -0.170298 78.2036 -55.2741 -116.397 23.3678 -10.105 8.41223 -5.01616 -13.993 -37.1731 -6.89939 -0.758333 7.17369 -101.832 -42.8897 58.3727 -28.3231 10.8078 -0.274712 2.17649 10.8978 -26.4652 11.1222 1.12621 5.88225 10.6539 2.41562 2.41467 0.427565 1.8034 0.194002 
-18.1238 97.2377 -139.835 -77.0804 -84.0871 -77.7521 -172.869 4.80091 89.1975 -11.6408 9.74066 -0.580674 64.1709 6.46321 8.97452 33.2335 5.18175 -8.36397 178.881 6.83242 91.2609 -16.9501 3.79541 -1.6089 69.1073 -3.27583 -1.72883 30.0826 -0.583384 12.8168 -0.308498 7.04393 -89.9815 12.7864 -0.603761 0.1089 1.1156 -0.598379 0.135359 -21.4207 -0.608585 -0.0775989 -1.40802 -0.60857 -0.0775922 78.5148 -54.4951 -116.264 24.7756 -9.17281 8.24503 -3.9969 -13.2872 -34.9786 -7.94059 -0.85605 7.24073 -101.892 -42.5401 58.1205 -28.3413 10.2069 -0.111445 2.46989 11.34 -25.8913 10.2617 1.02452 5.67813 11.0519 2.17647 2.17435 0.185399 1.61634 0.167184 
-18.145 97.2233 -140.386 -85.3175 -84.1928 -86.3584 -172.759 4.28518 89.0244 -11.6771 9.78815 -0.799026 64.0233 6.32313 8.72677 32.8769 4.84395 -8.56854 178.714 6.83989 90.9288 -17.988 3.60953 -1.73035 69.5101 -3.29968 -1.72941 29.1843 -0.748238 12.9344 -0.267773 7.13853 -89.9105 12.5974 -0.489197 0.235862 0.926504 -0.478344 0.257165 -21.6094 -0.537479 0.0779238 -1.59671 -0.537465 0.0779351 78.7578 -53.6344 -116.256 26.361 -7.8938 8.96941 -4.62268 -12.3146 -35.5184 -8.0423 -0.863696 7.19192 -102.245 -42.7544 57.6771 -27.8764 10.1331 0.293294 2.21007 10.3682 -25.9919 10.508 1.0185 5.43135 11.6798 1.90152 2.33399 -0.178603 1.28889 -0.113855 
-18.0822 97.2819 -140.782 -90.1486 -83.964 -91.2305 -172.717 3.93734 88.9911 -11.5678 9.60346 -0.791377 63.775 6.02281 8.59777 32.8081 4.80924 -9.6743 178.721 6.53259 90.876 -17.7882 3.34531 -1.83495 69.0447 -3.164 -1.66538 29.7346 -0.641484 12.7621 -0.197504 7.18796 -89.8583 12.4983 -0.324913 0.320445 0.827384 -0.310498 0.334427 -21.7079 -0.406199 0.207977 -1.69529 -0.406201 0.207972 78.5639 -53.5153 -116.577 26.8107 -8.02702 9.33954 -4.20869 -11.6656 -35.864 -7.84566 -0.789968 6.29138 -102.48 -43.0833 57.4687 -26.9072 10.0079 0.87504 2.42611 10.479 -26.5003 9.55178 0.908034 5.17106 11.9839 1.58558 2.57616 -0.167964 0.899782 -0.684998 
-18.0506 97.2786 -141.037 -90.2522 -83.5983 -91.2084 -172.671 4.17564 89.0767 -11.793 9.47283 -0.819826 63.7819 6.17237 8.69094 32.9535 4.94443 -9.6189 178.747 6.6688 90.9512 -17.6724 3.28815 -1.76042 68.9516 -3.11781 -1.64452 29.6777 -0.678142 13.2416 -0.109428 7.20739 -89.836 12.4592 -0.13936 0.343598 0.78824 -0.124104 0.349389 -21.7467 -0.236184 0.285826 -1.73407 -0.236184 0.285825 78.6188 -53.5988 -116.467 26.7463 -8.27838 9.32568 -3.37405 -10.7791 -36.0929 -6.80173 -0.646856 5.30429 -102.633 -43.5248 57.4374 -25.8881 10.1251 1.07819 2.31918 10.0781 -26.9556 9.57831 0.897729 5.05197 12.3158 1.41755 2.66542 -0.0787056 0.697049 -1.01341 
-17.9424 97.238 -141.164 -89.0812 -83.4961 -89.9312 -172.766 4.66006 89.0528 -12.3605 9.09545 -0.717338 63.8759 6.12743 8.66835 33.3295 5.31334 -10.348 178.777 7.17092 90.977 -18.1735 3.2858 -1.71767 68.7458 -2.91274 -1.53704 29.8736 -0.631264 13.0167 -0.0754561 7.19161 -89.8247 12.4906 -0.0663849 0.357865 0.819638 -0.0505727 0.360432 -21.7152 -0.170871 0.321369 -1.70255 -0.170878 0.321354 78.3156 -53.8134 -116.811 26.2717 -9.23718 9.36385 -3.39799 -11.371 -36.4152 -6.13347 -0.54868 4.2695 -102.661 -43.9055 57.5678 -25.567 9.96992 1.60889 2.4536 9.6576 -27.6699 10.5557 1.01357 5.34777 12.2404 1.29612 2.85257 0.111416 0.526146 -1.23752 
-17.8883 97.2527 -141.326 -93.0221 -83.4353 -93.9234 -172.649 4.33509 89.0777 -12.4079 9.12216 -0.809912 63.7336 5.69939 8.35006 33.7588 5.71532 -10.6044 178.783 6.75985 90.9265 -18.0895 2.96821 -1.85702 68.7065 -2.91468 -1.53575 29.7222 -0.62844 12.4891 -0.0576259 7.22146 -89.8067 12.4308 -0.0225558 0.388693 0.759838 -0.00542896 0.389309 -21.7749 -0.138335 0.363952 -1.76225 -0.138336 0.36395 78.5314 -53.654 -116.569 26.2207 -10.8216 9.39935 -4.45458 -12.9831 -37.6756 -5.49141 -0.555299 5.36761 -102.468 -43.7508 57.7898 -26.2972 9.66133 2.0564 1.82875 8.00194 -27.3404 12.984 1.18333 5.05777 11.8275 1.33205 2.95239 -0.00306353 0.547874 -1.27969 
-17.8706 97.2861 -141.478 -94.2912 -83.3592 -95.2474 -172.689 4.16577 88.9951 -12.2274 8.93162 -0.778933 63.8201 5.88486 8.39018 32.9097 4.93626 -10.8605 178.682 6.65222 90.8167 -17.9446 2.92386 -1.79676 68.5973 -2.89412 -1.5271 29.6666 -0.640242 12.5299 -0.049993 7.22527 -89.7952 12.4232 -0.00195618 0.409198 0.752161 0.0160559 0.408879 -21.7825 -0.124841 0.389698 -1.76987 -0.124848 0.389685 79.1005 -53.0633 -115.991 26.7239 -11.4536 9.20853 -5.3727 -13.9709 -37.3464 -5.51837 -0.513976 3.98269 -102.417 -43.7405 57.8643 -26.9934 8.97691 2.7386 1.85562 6.93439 -27.6985 13.8578 1.24997 5.01047 11.7003 1.3465 3.03058 -0.165795 0.546357 -1.35293 
-17.8849 97.2815 -141.638 -96.2733 -83.2434 -97.2462 -172.733 4.0368 88.9627 -12.253 9.01404 -0.739198 63.5912 5.87566 8.65431 33.2752 5.27207 -10.8046 178.762 6.43766 90.8666 -17.8066 2.98555 -1.90454 68.7257 -2.9801 -1.57265 29.2697 -0.70746 12.5041 -0.0596485 7.23486 -89.7806 12.404 -0.0141809 0.439789 0.732954 0.00518926 0.439982 -21.8016 -0.145702 0.415195 -1.78901 -0.1457 0.415196 78.9796 -52.9616 -116.203 26.7566 -11.9084 9.29716 -5.93645 -14.565 -38.0385 -6.26009 -0.598055 4.65587 -102.051 -43.6618 58.3842 -27.6822 8.8878 3.13475 1.82502 6.634 -27.7731 13.8733 1.27274 5.16194 11.3769 1.41501 2.77805 -0.186933 0.687415 -1.1734 
-17.8836 97.288 -141.74 -97.4039 -83.3301 -98.3918 -172.714 3.90455 88.97 -12.0525 9.38183 -0.790733 63.2721 5.75068 9.09836 33.7625 5.72135 -10.8115 178.807 6.37891 90.8861 -17.8028 3.16403 -1.96156 68.6032 -2.94095 -1.55405 29.5246 -0.678556 12.771 -0.0701994 7.23711 -89.7896 12.3995 -0.0394368 0.424692 0.728533 -0.0207146 0.42601 -21.8061 -0.165263 0.393203 -1.79348 -0.16526 0.393203 78.9915 -52.8249 -116.24 26.7374 -11.8707 9.38679 -6.23183 -14.1501 -38.4393 -7.00919 -0.691734 5.55664 -102.251 -43.6873 58.0917 -28.2876 8.6281 3.44016 1.93131 6.61123 -27.6013 13.7005 1.24723 5.08399 11.0756 1.37561 3.12147 -0.137708 0.566844 -1.48233 
-17.856 97.3021 -141.852 -98.2473 -83.1643 -99.2451 -172.681 3.79174 88.9612 -11.949 9.21246 -0.807141 63.4585 5.88526 9.08648 32.9539 4.96456 -10.3745 178.8 6.44222 90.8509 -18.01 2.73125 -1.99675 68.3346 -2.86002 -1.51366 29.8925 -0.583948 12.2099 -0.0611686 7.25132 -89.7729 12.371 -0.0135914 0.455085 0.700016 0.00645856 0.455233 -21.8345 -0.149738 0.429967 -1.82191 -0.149731 0.429958 79.033 -52.8338 -116.177 26.6725 -11.4143 9.16606 -6.58316 -14.147 -38.8796 -6.75881 -0.644174 4.93966 -101.999 -43.5244 58.4012 -28.6872 9.1763 3.35282 1.4913 6.47758 -27.0698 13.3561 1.18572 4.85007 11.0653 1.34848 2.77804 -0.122185 0.623587 -1.39163 
-17.8315 97.2884 -141.956 -100.266 -83.3081 -101.321 -172.68 3.70157 88.9423 -12.0377 9.32659 -0.8338 63.9092 6.1046 8.49316 32.0329 4.06135 -9.25418 178.698 6.36781 90.7509 -18.1718 3.04141 -1.94841 68.5978 -2.96773 -1.56948 29.4889 -0.660789 12.3547 -0.0714592 7.27697 -89.779 12.3198 -0.0370604 0.445501 0.648768 -0.0174194 0.446693 -21.8858 -0.169244 0.413764 -1.8732 -0.169237 0.413767 79.5995 -52.9182 -115.334 26.5251 -10.9001 8.66837 -5.43353 -12.8654 -38.3558 -7.01988 -0.5826 3.45872 -102.41 -43.5823 57.8025 -28.8671 9.88797 3.28472 1.05209 6.54184 -26.6423 12.9484 1.12966 4.68697 11.0652 1.39697 2.82083 -0.256047 0.65993 -1.48686 
-17.8003 97.2897 -142.054 -101.643 -83.5877 -102.556 -172.648 3.91914 89.0662 -12.5074 9.53567 -0.796655 63.8151 5.87698 8.48894 32.5825 4.59782 -9.70879 178.792 6.2674 90.9226 -18.0792 3.3598 -1.96849 68.4171 -2.95846 -1.568 29.8022 -0.614393 12.4786 -0.0946433 7.27657 -89.8047 12.3207 -0.0953389 0.400778 0.649714 -0.077601 0.404581 -21.8851 -0.211384 0.353605 -1.87241 -0.21138 0.353596 79.3974 -53.0429 -115.575 26.3192 -10.3885 8.7523 -4.9047 -11.6372 -38.4831 -6.60437 -0.538097 3.23132 -102.77 -43.6213 57.273 -29.2311 10.0477 3.30451 1.27569 7.53681 -26.3654 12.3321 1.12055 4.9938 10.6441 1.47962 2.818 -0.0322922 0.747932 -1.52394 
-17.7987 97.2907 -142.1 -102.335 -83.771 -103.317 -172.752 3.90315 88.964 -12.4546 9.70004 -0.73534 63.7933 5.84585 8.41341 32.1678 4.18067 -9.01925 178.765 6.38613 90.8659 -18.3483 3.45742 -1.97424 68.4022 -2.93423 -1.55505 29.948 -0.588043 12.4618 -0.110412 7.26849 -89.7963 12.3369 -0.122662 0.420599 0.665888 -0.104027 0.425593 -21.8689 -0.243398 0.364303 -1.85623 -0.243402 0.364289 79.0836 -53.2603 -115.938 26.1499 -10.1499 8.95099 -4.82892 -11.3179 -38.6778 -6.78006 -0.546367 3.22114 -102.861 -43.6362 57.1432 -29.5154 10.3254 3.2453 1.47653 8.57602 -26.1812 11.5179 1.06132 5.06594 10.2911 1.55449 2.65071 0.0266731 0.871303 -1.39816 
-17.8119 97.2938 -142.168 -103.727 -83.7805 -104.713 -172.678 3.80149 89.0107 -12.4433 9.8033 -0.811536 63.7176 5.9852 8.62086 32.0932 4.12284 -9.3535 178.772 6.25706 90.8831 -18.3161 3.52133 -1.99516 68.415 -2.96046 -1.56929 29.9619 -0.593145 12.6014 -0.092848 7.29034 -89.7939 12.2932 -0.0867519 0.421192 0.622153 -0.0681285 0.424589 -21.9126 -0.209327 0.375643 -1.89992 -0.209326 0.375636 79.1117 -53.3197 -115.875 26.1321 -10.0106 8.83203 -4.7746 -11.4667 -39.3801 -7.04778 -0.610943 4.15969 -102.951 -43.5346 56.9592 -29.7524 10.9623 3.11091 1.29604 8.88871 -26.2521 11.0758 1.03428 5.14881 10.141 1.43447 2.45086 0.0519456 0.811402 -1.10885 
